<svg xmlns="http://www.w3.org/2000/svg" viewBox="0 0 32 32"><path fill="#ECD53F" d="M29.01,5.03,23.244,2.254a1.742,1.742,0,0,0-1.989.338L2.38,19.8A1.166,1.166,0,0,0,2.3,21.447c.025.027.05.053.077.077l1.541,1.4a1.165,1.165,0,0,0,1.489.066L28.142,5.75A1.158,1.158,0,0,0,29.01,5.03Z"/><path fill="#7B9B4D" d="M29.01,26.97l-5.766,2.776a1.742,1.742,0,0,1-1.989-.338L2.38,12.2A1.166,1.166,0,0,1,2.3,10.553c.025-.027.05-.053.077-.077l1.541-1.4A1.165,1.165,0,0,1,5.41,9.01L28.142,26.25A1.158,1.158,0,0,1,29.01,26.97Z"/></svg>
